<svg width="15" height="9" viewBox="0 0 15 9" fill="none" xmlns="http://www.w3.org/2000/svg">
<path d="M2.03033 0.96967C1.73744 0.676777 1.26256 0.676777 0.96967 0.96967C0.676777 1.26256 0.676777 1.73744 0.96967 2.03033L2.03033 0.96967ZM7.5 7.5L6.96967 8.03033C7.26256 8.32322 7.73744 8.32322 8.03033 8.03033L7.5 7.5ZM14.0303 2.03033C14.3232 1.73744 14.3232 1.26256 14.0303 0.96967C13.7374 0.676777 13.2626 0.676777 12.9697 0.96967L14.0303 2.03033ZM0.96967 2.03033L6.96967 8.03033L8.03033 6.96967L2.03033 0.96967L0.96967 2.03033ZM8.03033 8.03033L14.0303 2.03033L12.9697 0.96967L6.96967 6.96967L8.03033 8.03033ZM0.46967 1.53033L6.96967 8.03033L8.03033 6.96967L1.53033 0.46967L0.46967 1.53033ZM8.03033 8.03033L14.5303 1.53033L13.4697 0.46967L6.96967 6.96967L8.03033 8.03033Z" fill="#EC5242"/>
</svg>
