<?xml version="1.0" encoding="UTF-8" standalone="no"?>
<!-- Created with Inkscape (http://www.inkscape.org/) -->

<svg
   xmlns:dc="http://purl.org/dc/elements/1.1/"
   xmlns:cc="http://creativecommons.org/ns#"
   xmlns:rdf="http://www.w3.org/1999/02/22-rdf-syntax-ns#"
   xmlns:svg="http://www.w3.org/2000/svg"
   xmlns="http://www.w3.org/2000/svg"
   xmlns:sodipodi="http://sodipodi.sourceforge.net/DTD/sodipodi-0.dtd"
   xmlns:inkscape="http://www.inkscape.org/namespaces/inkscape"
   width="136.99527"
   height="21.785461"
   id="svg3691"
   version="1.1"
   inkscape:version="0.47 r22583"
   sodipodi:docname="New document 3">
  <defs
     id="defs3693">
    <inkscape:perspective
       sodipodi:type="inkscape:persp3d"
       inkscape:vp_x="0 : 526.18109 : 1"
       inkscape:vp_y="0 : 1000 : 0"
       inkscape:vp_z="744.09448 : 526.18109 : 1"
       inkscape:persp3d-origin="372.04724 : 350.78739 : 1"
       id="perspective3699" />
    <inkscape:perspective
       id="perspective3630"
       inkscape:persp3d-origin="0.5 : 0.33333333 : 1"
       inkscape:vp_z="1 : 0.5 : 1"
       inkscape:vp_y="0 : 1000 : 0"
       inkscape:vp_x="0 : 0.5 : 1"
       sodipodi:type="inkscape:persp3d" />
    <clipPath
       clipPathUnits="userSpaceOnUse"
       id="clipPath636">
      <path
         d="m -0.0045,2.9754 0,-4.7804 1.1015,0 0,4.7804"
         id="path638" />
    </clipPath>
    <clipPath
       clipPathUnits="userSpaceOnUse"
       id="clipPath738">
      <path
         d="m -0.0045,2.0739 0,-0.562 0.895,0 0,0.562"
         id="path740" />
    </clipPath>
  </defs>
  <sodipodi:namedview
     id="base"
     pagecolor="#ffffff"
     bordercolor="#666666"
     borderopacity="1.0"
     inkscape:pageopacity="0.0"
     inkscape:pageshadow="2"
     inkscape:zoom="2.5536187"
     inkscape:cx="128.77699"
     inkscape:cy="23.526514"
     inkscape:document-units="px"
     inkscape:current-layer="g634"
     showgrid="false"
     inkscape:window-width="1024"
     inkscape:window-height="708"
     inkscape:window-x="-4"
     inkscape:window-y="-4"
     inkscape:window-maximized="1" />
  <metadata
     id="metadata3696">
    <rdf:RDF>
      <cc:Work
         rdf:about="">
        <dc:format>image/svg+xml</dc:format>
        <dc:type
           rdf:resource="http://purl.org/dc/dcmitype/StillImage" />
        <dc:title></dc:title>
      </cc:Work>
    </rdf:RDF>
  </metadata>
  <g
     inkscape:label="Layer 1"
     inkscape:groupmode="layer"
     id="layer1"
     transform="translate(-191.22301,-531.05648)">
    <g
       id="g632"
       transform="matrix(239.25125,0,0,-38.702187,189.309,561.73183)">
      <g
         id="g634"
         clip-path="url(#clipPath636)">
        <path
           d="m 0.1021,0.6715 c 0,0.0243 -5e-4,0.0419 -0.0079,0.0424 l -4e-4,0.0041 0,0.0088 c 0,0.0036 7e-4,0.0042 0.0014,0.0042 0.0025,0 0.0074,-0.0026 0.0111,-0.0026 0.0034,0 0.0067,0.0026 0.0104,0.0026 0.0017,0 0.0022,0 0.0022,-0.0057 l 0,-0.0083 c 0,-0.0026 -0.001,-0.0031 -0.0024,-0.0031 -0.0034,0 -0.0068,-0.0016 -0.0068,-0.0269 l 0,-0.1162 0.0358,0 0,0.0966 c 0,0.0356 0,0.0434 -0.0067,0.0465 -0.001,5e-4 -0.0011,0.0021 -0.0011,0.0083 l 0,0.0062 4e-4,0.0026 c 0.0027,-0.0011 0.008,-0.0026 0.0132,-0.0026 0.0053,0 0.0075,0.001 0.0099,0.0026 l 4e-4,-0.0032 0,-0.0098 c 0,-0.0041 -8e-4,-0.0041 -0.002,-0.0041 -0.0044,0 -0.0065,-0.0047 -0.0065,-0.0346 l 0,-0.2558 c 0,-0.0372 0.0032,-0.0403 0.008,-0.0403 3e-4,0 3e-4,-0.0078 3e-4,-0.0134 0,-0.0021 -3e-4,-0.0037 -0.0026,-0.0037 -0.0033,0 -0.0067,0.0026 -0.01,0.0026 -0.0031,0 -0.0083,-0.0026 -0.0093,-0.0026 -0.0022,0 -0.0026,0.0011 -0.0026,0.0031 l 0,0.0114 4e-4,0.0026 c 0.0081,0 0.0082,0.0103 0.0082,0.0465 l 0,0.1209 -0.0358,0 0,-0.1307 c 0,-0.0295 0.0012,-0.0367 0.0074,-0.0367 9e-4,0 0.0012,-0.001 0.0012,-0.0057 l 0,-0.0077 c 0,-0.0031 -9e-4,-0.0037 -0.0027,-0.0037 -0.0034,0 -0.0069,0.0026 -0.0103,0.0026 -0.0032,0 -0.0064,-0.0026 -0.0096,-0.0026 -6e-4,0 -0.0013,0 -0.0017,0.0031 l 0,0.0114 5e-4,0.0026 c 0.004,0 0.0076,0.0021 0.0076,0.0284 l 0,0.2599"
           style="fill:#ee2922;fill-opacity:1;fill-rule:nonzero;stroke:none"
           id="path700" />
        <path
           d="M 0.1843,0.4747 0.1761,0.4514 C 0.1749,0.4483 0.1719,0.4385 0.1719,0.425 c 0,-0.0139 0.0011,-0.0403 0.0038,-0.0403 0.003,0 0.0058,0.0181 0.0079,0.0305 l 7e-4,0.0047 0,0.0548 z m 1e-4,0.0392 c 0,0.0284 -6e-4,0.0502 -0.0067,0.0502 -0.0022,0 -0.0064,-0.0042 -0.0064,-0.0192 0,-0.0036 2e-4,-0.0088 4e-4,-0.0119 L 0.1665,0.5144 c -3e-4,0.0042 -5e-4,0.0093 -5e-4,0.0155 0,0.0166 0.0026,0.0295 0.0044,0.0357 l 0.0075,0.0269 c 0.001,0.0036 0.0014,0.0051 0.0018,0.0051 0.0069,0 0.0105,-0.0206 0.0105,-0.063 l 0,-0.1096 c 0,-0.0108 0,-0.0325 0.0027,-0.0325 0.0016,0 0.0019,0.0041 0.003,0.015 L 0.1975,0.4039 C 0.1965,0.3791 0.1944,0.3589 0.1908,0.3589 0.1851,0.3589 0.1845,0.3915 0.1846,0.4044 0.1814,0.3842 0.1772,0.3589 0.1723,0.3589 c -0.0048,0 -0.0073,0.0388 -0.0073,0.062 0,0.0088 0.0015,0.0253 0.0085,0.0419 l 0.0109,0.0263 0,0.0248"
           style="fill:#ee2922;fill-opacity:1;fill-rule:nonzero;stroke:none"
           id="path702" />
        <path
           d="m 0.2122,0.4209 c 0,-0.0207 0,-0.0403 0.0064,-0.0403 5e-4,0 5e-4,-0.0026 5e-4,-0.0072 0,-0.0047 0,-0.0073 -6e-4,-0.0073 -0.003,0 -0.0059,0.0026 -0.0088,0.0026 -0.0032,0 -0.0065,-0.0026 -0.0097,-0.0026 -3e-4,0 -3e-4,0.0011 -3e-4,0.0042 l 0,0.0046 c 0,0.0052 1e-4,0.0057 0.0018,0.0062 0.0037,0.0016 0.0044,0.0093 0.0044,0.0372 l 0,0.1147 c 0,0.0099 -8e-4,0.0161 -0.0026,0.0192 -3e-4,5e-4 -0.0025,0.0041 -0.0025,0.0113 0,0.0031 3e-4,0.0047 0.0012,0.0073 l 0.0062,0.0175 c 0.0018,0.0052 0.0033,0.0093 0.0035,0.0093 5e-4,0 7e-4,-0.0031 7e-4,-0.0046 l -2e-4,-0.0532 2e-4,-0.0011 c 0.0026,0.0212 0.0065,0.0589 0.0116,0.0589 0.003,0 0.0048,-0.0088 0.0048,-0.0279 0,-0.0108 -0.0017,-0.0201 -0.0035,-0.0201 -0.0022,0 -0.0031,0.0093 -0.0056,0.0093 -0.002,0 -0.0046,-0.0176 -0.0062,-0.0305 l -0.0013,-0.0098 0,-0.0977"
           style="fill:#ee2922;fill-opacity:1;fill-rule:nonzero;stroke:none"
           id="path704" />
        <path
           d="m 0.2423,0.4178 c 0,-0.0269 0.0043,-0.0356 0.0083,-0.0356 0.0085,0 0.013,0.0366 0.013,0.0894 0,0.0454 -0.0044,0.0925 -0.0124,0.0925 -0.0034,0 -0.006,-0.0042 -0.0089,-0.0166 l 0,-0.1297 z M 0.236,0.5201 c 0,0.0228 -2e-4,0.0274 -0.002,0.0321 L 0.231,0.5604 c -1e-4,0 -1e-4,0.0011 -1e-4,0.0037 0,0.0041 1e-4,0.0041 6e-4,0.0061 l 0.0102,0.0305 c 5e-4,-0.001 5e-4,-0.0046 5e-4,-0.0072 0,-0.0098 -10e-5,-0.0202 10e-5,-0.03 0.0028,0.0088 0.0097,0.0341 0.0126,0.0341 0.0091,0 0.0156,-0.0563 0.0156,-0.1085 0,-0.0992 -0.0163,-0.1302 -0.0227,-0.1302 -0.0019,0 -0.0036,0.0036 -0.0055,0.0047 l 0,-0.0801 c 0,-0.0352 0.0014,-0.0372 0.0075,-0.0393 3e-4,0 5e-4,-0.0016 5e-4,-0.0031 l 0,-0.0052 c 0,-0.0031 -1e-4,-0.0062 -4e-4,-0.0062 -0.0036,0 -0.0071,0.0026 -0.0109,0.0026 -0.0037,0 -0.007,-0.0026 -0.0092,-0.0026 -8e-4,0 -8e-4,0.0021 -8e-4,0.0073 l 0,0.0031 c 0,0.0015 0,0.0041 2e-4,0.0041 0.0064,0.0036 0.0068,0.0041 0.0068,0.046 l 0,0.2299"
           style="fill:#ee2922;fill-opacity:1;fill-rule:nonzero;stroke:none"
           id="path706" />
        <path
           d="m 0.2959,0.5186 c 0.0011,0 0.0024,0.0098 0.0024,0.0186 0,0.0253 -0.0031,0.0434 -0.0072,0.0434 C 0.286,0.5806 0.2826,0.5449 0.2818,0.516 L 0.2959,0.5186 z M 0.2814,0.5041 c -2e-4,-0.0072 -2e-4,-0.0145 -2e-4,-0.0217 0,-0.045 0.0056,-0.0899 0.0132,-0.0899 0.0031,0 0.0053,0.0072 0.0095,0.0305 L 0.3054,0.4163 C 0.302,0.3827 0.297,0.3589 0.2903,0.3589 c -0.0085,0 -0.0155,0.0506 -0.0155,0.108 0,0.061 0.0067,0.1307 0.0177,0.1307 0.0074,0 0.0127,-0.0346 0.0127,-0.0775 l 0,-0.016 -0.0238,0"
           style="fill:#ee2922;fill-opacity:1;fill-rule:nonzero;stroke:none"
           id="path708" />
        <path
           d="m 0.3211,0.4209 c 0,-0.0207 0,-0.0403 0.0064,-0.0403 5e-4,0 5e-4,-0.0026 5e-4,-0.0072 0,-0.0047 0,-0.0073 -6e-4,-0.0073 -0.003,0 -0.0059,0.0026 -0.0088,0.0026 -0.0032,0 -0.0065,-0.0026 -0.0097,-0.0026 -3e-4,0 -3e-4,0.0011 -3e-4,0.0042 l 0,0.0046 c 0,0.0052 10e-5,0.0057 0.0018,0.0062 0.0037,0.0016 0.0044,0.0093 0.0044,0.0372 l 0,0.1147 c 0,0.0099 -8e-4,0.0161 -0.0026,0.0192 -3e-4,5e-4 -0.0025,0.0041 -0.0025,0.0113 0,0.0031 3e-4,0.0047 0.0012,0.0073 l 0.0062,0.0175 c 0.0018,0.0052 0.0033,0.0093 0.0035,0.0093 5e-4,0 7e-4,-0.0031 7e-4,-0.0046 l -2e-4,-0.0532 2e-4,-0.0011 c 0.0026,0.0212 0.0065,0.0589 0.0116,0.0589 0.003,0 0.0048,-0.0088 0.0048,-0.0279 0,-0.0108 -0.0017,-0.0201 -0.0035,-0.0201 -0.0022,0 -0.0031,0.0093 -0.0056,0.0093 -0.002,0 -0.0046,-0.0176 -0.0062,-0.0305 l -0.0013,-0.0098 0,-0.0977"
           style="fill:#ee2922;fill-opacity:1;fill-rule:nonzero;stroke:none"
           id="path710" />
        <path
           d="M 0.3971,0.3868 C 0.3915,0.3698 0.3848,0.3589 0.3772,0.3589 c -0.0164,0 -0.0346,0.0718 -0.0346,0.1907 0,0.1131 0.017,0.1886 0.0341,0.1886 0.0056,0 0.0153,-0.0119 0.0201,-0.03 L 0.3979,0.6483 c 1e-4,-0.0042 2e-4,-0.0098 2e-4,-0.0124 0,-0.0037 -0.0013,-0.0037 -0.0016,-0.0037 -4e-4,0 -0.0011,0.0083 -0.0023,0.0254 C 0.3918,0.6932 0.3844,0.718 0.3771,0.718 0.3611,0.718 0.352,0.6369 0.352,0.5439 c 0,-0.0847 0.011,-0.1648 0.0251,-0.1648 0.0049,0 0.0113,0.0108 0.0146,0.0273 0.0026,0.013 0.0037,0.0362 0.0047,0.0553 1e-4,0.0011 6e-4,0.0011 0.001,0.0011 7e-4,0 0.0019,-6e-4 0.0017,-0.0078 L 0.3971,0.3868"
           style="fill:#2979c7;fill-opacity:1;fill-rule:nonzero;stroke:none"
           id="path712" />
        <path
           d="m 0.4216,0.5806 c -0.0084,0 -0.0109,-0.0491 -0.0109,-0.0987 0,-0.0455 0.0039,-0.1059 0.0125,-0.1059 0.0082,0 0.0115,0.0449 0.0115,0.0893 0,0.0517 -0.0029,0.1153 -0.0131,0.1153 z m 0.0019,0.017 c 0.01,0 0.0187,-0.0537 0.0187,-0.1157 0,-0.0744 -0.01,-0.123 -0.0209,-0.123 -0.0101,0 -0.0182,0.0527 -0.0182,0.1158 0,0.0692 0.0093,0.1229 0.0204,0.1229"
           style="fill:#2979c7;fill-opacity:1;fill-rule:nonzero;stroke:none"
           id="path714" />
        <path
           d="m 0.4558,0.4054 c 0,-0.0114 0,-0.0248 0.0058,-0.0248 2e-4,0 2e-4,-0.0031 2e-4,-0.0072 0,-0.0047 -10e-5,-0.0073 -3e-4,-0.0073 -0.0032,0 -0.0069,0.0026 -0.0087,0.0026 -0.003,0 -0.006,-0.0026 -0.009,-0.0026 -6e-4,0 -7e-4,0.0016 -7e-4,0.0037 l 0,0.0046 c 0,0.0062 2e-4,0.0062 0.0014,0.0062 0.0036,0 0.005,0.0031 0.005,0.0274 l 0,0.279 c 0,0.0326 0,0.0346 -0.0033,0.0429 C 0.445,0.733 0.4438,0.7356 0.4438,0.7397 c 0,0.0042 8e-4,0.0057 0.0043,0.014 l 0.0061,0.0139 c 10e-5,6e-4 0.001,0.0026 0.0012,0.0026 6e-4,0 6e-4,-0.0052 6e-4,-0.0082 0,-0.0249 -2e-4,-0.0502 -2e-4,-0.075 l 0,-0.2816"
           style="fill:#2979c7;fill-opacity:1;fill-rule:nonzero;stroke:none"
           id="path716" />
        <path
           d="m 0.4778,0.4054 c 0,-0.0114 0,-0.0248 0.0057,-0.0248 2e-4,0 2e-4,-0.0031 2e-4,-0.0072 0,-0.0047 -1e-4,-0.0073 -3e-4,-0.0073 -0.0032,0 -0.0069,0.0026 -0.0086,0.0026 -0.0031,0 -0.0061,-0.0026 -0.0091,-0.0026 -6e-4,0 -7e-4,0.0016 -7e-4,0.0037 l 0,0.0046 c 0,0.0062 2e-4,0.0062 0.0014,0.0062 0.0037,0 0.005,0.0031 0.005,0.0274 l 0,0.279 c 0,0.0326 0,0.0346 -0.0033,0.0429 -0.0012,0.0031 -0.0024,0.0057 -0.0024,0.0098 0,0.0042 9e-4,0.0057 0.0043,0.014 l 0.0061,0.0139 c 2e-4,6e-4 0.001,0.0026 0.0012,0.0026 6e-4,0 6e-4,-0.0052 6e-4,-0.0082 0,-0.0249 -10e-5,-0.0502 -10e-5,-0.075 l 0,-0.2816"
           style="fill:#2979c7;fill-opacity:1;fill-rule:nonzero;stroke:none"
           id="path718" />
        <path
           d="m 0.4969,0.7511 c 0.0026,0 0.0047,-0.0129 0.0047,-0.0289 0,-0.0161 -0.0021,-0.029 -0.0047,-0.029 -0.0026,0 -0.0047,0.0129 -0.0047,0.029 0,0.016 0.0021,0.0289 0.0047,0.0289 z M 0.5003,0.4054 c 0,-0.0114 0,-0.0248 0.0058,-0.0248 2e-4,0 2e-4,-0.0031 2e-4,-0.0072 0,-0.0047 -10e-5,-0.0073 -3e-4,-0.0073 -0.0032,0 -0.0069,0.0026 -0.0087,0.0026 -0.003,0 -0.006,-0.0026 -0.009,-0.0026 -6e-4,0 -8e-4,0.0016 -8e-4,0.0037 l 0,0.0046 c 0,0.0062 3e-4,0.0062 0.0015,0.0062 0.0036,0 0.005,0.0031 0.005,0.0274 l 0,0.1064 c 0,0.0326 0,0.0347 -0.0033,0.0429 -0.0012,0.0031 -0.0024,0.0057 -0.0024,0.0099 0,0.0041 8e-4,0.0056 0.0043,0.0139 L 0.4987,0.595 c 1e-4,6e-4 0.001,0.0026 0.0012,0.0026 6e-4,0 6e-4,-0.0051 6e-4,-0.0082 0,-0.0248 -2e-4,-0.0502 -2e-4,-0.075 l 0,-0.109"
           style="fill:#2979c7;fill-opacity:1;fill-rule:nonzero;stroke:none"
           id="path720" />
        <path
           d="m 0.5166,0.5392 c 0,0.0099 -8e-4,0.0161 -0.0016,0.0171 L 0.5122,0.5604 c -2e-4,6e-4 -5e-4,0.0021 -5e-4,0.0057 0,0.0016 10e-5,0.0052 5e-4,0.0057 0.0042,0.0067 0.0099,0.0258 0.0104,0.0258 3e-4,0 3e-4,-0.0041 3e-4,-0.0062 l 0,-0.0356 c 0.0039,0.0191 0.0084,0.0418 0.0137,0.0418 0.0073,0 0.0104,-0.0253 0.0104,-0.0687 l 0,-0.1261 c 0,-0.0222 0.0027,-0.0222 0.0055,-0.0222 2e-4,0 3e-4,-0.001 3e-4,-0.0036 l 0,-0.0093 c 0,-0.001 -10e-5,-0.0016 -4e-4,-0.0016 -0.0033,0 -0.0055,0.0026 -0.0083,0.0026 -0.003,0 -0.0059,-0.0026 -0.0089,-0.0026 -6e-4,0 -6e-4,0.0093 -6e-4,0.0114 0,0.0016 3e-4,0.0031 8e-4,0.0031 0.0014,0 0.0052,0 0.0052,0.0155 l 0,0.1214 c 0,0.0321 -0.0016,0.0502 -0.0074,0.0502 -0.0035,0 -0.0079,-0.013 -0.0103,-0.0279 l 0,-0.1344 c 0,-0.0114 0,-0.0248 0.0058,-0.0248 1e-4,0 1e-4,-0.0031 1e-4,-0.0072 0,-0.0047 0,-0.0073 -2e-4,-0.0073 -0.0033,0 -0.007,0.0026 -0.0087,0.0026 -0.003,0 -0.006,-0.0026 -0.009,-0.0026 -6e-4,0 -8e-4,0.0016 -8e-4,0.0037 l 0,0.0046 c 0,0.0062 3e-4,0.0062 0.0014,0.0062 0.0037,0 0.0051,0.0031 0.0051,0.0274 l 0,0.1312"
           style="fill:#2979c7;fill-opacity:1;fill-rule:nonzero;stroke:none"
           id="path722" />
        <path
           d="m 0.5794,0.5336 -0.0021,0 c -0.001,0.0227 -0.0029,0.047 -0.0074,0.047 -0.0038,0 -0.0068,-0.0114 -0.0068,-0.0357 0,-0.0201 0.0044,-0.0325 0.0087,-0.0475 0.0045,-0.0155 0.0088,-0.0336 0.0088,-0.0656 0,-0.045 -0.0067,-0.0729 -0.0134,-0.0729 -0.0055,0 -0.0107,0.015 -0.0108,0.0233 l -4e-4,0.047 0.0024,0.0015 c 3e-4,-0.0026 4e-4,-0.0062 6e-4,-0.0098 9e-4,-0.0212 0.0047,-0.0449 0.0083,-0.0449 0.0043,0 0.007,0.016 0.007,0.0428 0,0.0171 -0.0039,0.0352 -0.006,0.0419 -0.0048,0.0155 -0.011,0.0331 -0.011,0.0723 0,0.0429 0.0064,0.0646 0.0127,0.0646 0.0033,0 0.0067,-0.0057 0.0099,-0.016 l -5e-4,-0.048"
           style="fill:#2979c7;fill-opacity:1;fill-rule:nonzero;stroke:none"
           id="path724" />
        <path
           d="M 0.0182,0.5485 C 0.0148,0.5275 0.0113,0.5179 0.008,0.5259 l 0,-0.1558 0.059,0 0,0.1643 C 0.0621,0.4975 0.056,0.5134 0.0566,0.5442 l 0,10e-5 C 0.0474,0.4779 0.0421,0.5152 0.0436,0.5424 l 0,10e-5 C 0.0352,0.4801 0.03,0.5167 0.0324,0.5479 l 0,10e-5 C 0.0218,0.4698 0.0152,0.4985 0.0183,0.5484 l -10e-5,10e-5"
           style="fill:#2979c7;fill-opacity:1;fill-rule:nonzero;stroke:none"
           id="path726" />
        <path
           d="m 0.0396,0.757 c 8e-4,0.0146 -2e-4,0.0304 -0.0013,0.0353 l 0,3e-4 C 0.0421,0.7875 0.0454,0.7567 0.0454,0.7216 0.0454,0.6766 0.0377,0.6397 0.038,0.6002 l 0,0 c 0.0018,0.0542 0.0153,0.0864 0.0125,0.145 l 0,0 C 0.0543,0.7295 0.0561,0.6868 0.0567,0.654 l 0,0 C 0.0583,0.6876 0.0658,0.7088 0.067,0.735 l 0,0 0,-0.1699 -0.059,0 0,0.087 c 10e-5,0.052 0.0145,0.0508 0.0134,0.0993 l 0,3e-4 C 0.0257,0.7086 0.019,0.6713 0.0203,0.6439 l 1e-4,0 C 0.0238,0.7265 0.0367,0.7043 0.0396,0.757"
           style="fill:#ee2922;fill-opacity:1;fill-rule:nonzero;stroke:none"
           id="path728" />
      </g>
    </g>
  </g>
</svg>
